<?xml version="1.0" encoding="utf-8"?>
<!-- Generator: Adobe Illustrator 16.0.0, SVG Export Plug-In . SVG Version: 6.00 Build 0)  -->
<!DOCTYPE svg PUBLIC "-//W3C//DTD SVG 1.1//EN" "http://www.w3.org/Graphics/SVG/1.1/DTD/svg11.dtd">
<svg version="1.1" id="Layer_1" editable="false" xmlns="http://www.w3.org/2000/svg" xmlns:xlink="http://www.w3.org/1999/xlink"
	 x="0px" y="0px" width="440px" height="247px" viewBox="271.464 1206.5 440 247" enable-background="new 271.464 1206.5 440 247"
	 xml:space="preserve">
<rect x="271.464" y="1206.5" fill="#1E3C4D" width="440" height="247"/>
<g transform="matrix(25.693431854248047 0 0 26.413043975830078 0 0)">
	<path fill="#709BAF" d="M24.295,48.488c0,0.933-0.777,1.71-1.71,1.71c-0.933,0-1.632-0.855-1.632-1.71c0-0.933,0.7-1.71,1.632-1.71
		C23.518,46.778,24.295,47.555,24.295,48.488z M20.408,50.354c-0.389-0.622-1.011-0.622-1.399,0l-0.078,0.078
		c-0.311-0.466-0.622-1.011-0.855-1.477c-0.544-0.933-1.399-0.933-1.943,0c-0.544,0.933-1.399,2.41-1.943,3.343
		c-0.544,0.933-0.078,1.632,1.011,1.632h5.986c0.777,0,1.088-0.466,0.7-1.166C21.496,52.064,20.875,51.054,20.408,50.354z"/>
</g>
<rect x="106.5" y="-1801.2" fill="none" width="440" height="247"/>
</svg>
