<?xml version="1.0" encoding="utf-8"?>
<!-- Generator: Adobe Illustrator 16.0.0, SVG Export Plug-In . SVG Version: 6.00 Build 0)  -->
<!DOCTYPE svg PUBLIC "-//W3C//DTD SVG 1.1//EN" "http://www.w3.org/Graphics/SVG/1.1/DTD/svg11.dtd">
<svg version="1.1" id="Layer_1" xmlns="http://www.w3.org/2000/svg" xmlns:xlink="http://www.w3.org/1999/xlink" x="0px" y="0px"
	 width="943.75px" height="157.618px" viewBox="0 0 943.75 157.618" enable-background="new 0 0 943.75 157.618"
	 xml:space="preserve">
<g>
	<g>
		<path fill="#2AA9E0" d="M74.49,120.729l0.109-0.059C74.533,120.706,74.494,120.728,74.49,120.729z"/>
		<path fill="#2AA9E0" d="M81.748,120.731c0,0-0.046-0.025-0.123-0.066L81.748,120.731L81.748,120.731z"/>
		<path fill="#2AA9E0" d="M121.714,101.399l28.671-28.244l-16.133-2.504l-23.66,23.307l-0.101,0.096
			c-0.321,0.324-1.366,1.439-1.886,2.715c-0.011,0.031-0.023,0.063-0.035,0.094c-0.033,0.088-0.068,0.178-0.097,0.27
			c-0.029,0.092-0.051,0.184-0.075,0.277c-0.008,0.031-0.015,0.063-0.023,0.094c-0.309,1.359-0.085,2.896-0.009,3.336l0.022,0.121
			l9.336,51.258c0.652,3.582,4.048,5.949,7.586,5.289c2.82-0.525,4.871-2.822,5.261-5.545c0.099-0.693,0.095-1.412-0.038-2.137
			L121.714,101.399z"/>
		<path fill="#39B54A" d="M154.7,56.515c-0.612-0.321-1.284-0.554-2.005-0.665l-48.059-7.459L87.576,11.459l-7.297,15.333
			l13.765,29.795l0.059,0.128c0.196,0.414,0.892,1.78,1.912,2.696c0.025,0.021,0.05,0.043,0.075,0.063
			c0.072,0.061,0.144,0.124,0.219,0.182c0.076,0.057,0.157,0.108,0.235,0.162c0.026,0.019,0.054,0.035,0.08,0.054
			c1.166,0.74,2.673,1.031,3.106,1.103l0.122,0.02l50.869,7.894c3.557,0.552,6.88-1.918,7.425-5.52
			C158.58,60.497,157.113,57.78,154.7,56.515z"/>
		<path fill="#ED1164" d="M36.119,100.739l-7.962,39.699l14.719-7.145l6.573-32.756l0.027-0.139
			c0.086-0.451,0.329-1.967,0.048-3.318c-0.008-0.031-0.015-0.064-0.022-0.096c-0.022-0.094-0.043-0.188-0.07-0.279
			c-0.026-0.092-0.062-0.182-0.093-0.271c-0.011-0.031-0.022-0.061-0.032-0.092c-0.502-1.299-1.542-2.439-1.849-2.758l-0.087-0.09
			L11.132,56.487c-2.532-2.586-6.655-2.604-9.209-0.039c-2.037,2.046-2.454,5.113-1.259,7.584c0.304,0.628,0.707,1.22,1.22,1.744
			L36.119,100.739z"/>
		<path fill="#1C75BC" d="M33.553,157.522c0.681-0.119,1.354-0.346,1.995-0.695l42.755-23.447l35.618,19.006l-3.325-16.686
			l-28.737-15.332l-0.122-0.066c-0.404-0.209-1.772-0.871-3.132-0.979c-0.032-0.002-0.064-0.004-0.097-0.006
			c-0.096-0.004-0.189-0.01-0.283-0.01c-0.096,0.002-0.19,0.008-0.284,0.014c-0.033,0.002-0.064,0.006-0.098,0.006
			c-1.369,0.125-2.744,0.813-3.132,1.021l-0.108,0.061l-45.256,24.816c-3.163,1.736-4.339,5.738-2.627,8.941
			C28.086,156.722,30.875,157.989,33.553,157.522z"/>
		<g>
			<path fill="#1C75BC" d="M74.503,115.13l0.11-0.061c0.399-0.211,1.81-0.908,3.217-1.033c0.033-0.002,0.065-0.006,0.1-0.008
				c0.096-0.004,0.193-0.012,0.291-0.014c0.098,0,0.193,0.008,0.291,0.012c0.033,0.002,0.067,0.002,0.1,0.004
				c1.396,0.107,2.799,0.779,3.214,0.992l0.125,0.068l19.924,10.496V104.56h-4.237V90.956V88.38v-1.416h-2.08v1.416h-5.27v-8.139
				h0.971l-3.05-2.22v-4.021c0.104,0,0.199,0,0.276,0c1.664,0,1.803-2.357,1.803-2.357c-5.546,1.941-11.926-3.883-11.926-3.883
				s-6.378,5.824-11.926,3.883c0,0,0.14,2.357,1.804,2.357c0.077,0,0.173,0,0.276,0v4.021l-3.051,2.22h0.971v8.139h-5.269v-1.416
				h-2.081v1.416v2.576v13.604h-4.237v21.213L74.503,115.13z M81.648,104.233c0,0.215-0.03,0.42-0.078,0.619h-6.157
				c-0.044-0.199-0.076-0.404-0.076-0.619v-6.656c0-1.742,1.412-3.156,3.157-3.156c1.746,0,3.154,1.414,3.154,3.156V104.233z
				 M75.693,84.122c0-1.475,1.194-2.67,2.669-2.67s2.67,1.195,2.67,2.67c0,1.473-1.195,2.67-2.67,2.67S75.693,85.595,75.693,84.122z
				 M90.476,97.577v6.656c0,0.215-0.029,0.42-0.075,0.619h-6.157c-0.049-0.199-0.076-0.404-0.076-0.619v-6.656
				c0-1.742,1.407-3.156,3.155-3.156C89.066,94.421,90.476,95.835,90.476,97.577z M71.567,74.443h6.795h6.796v2.438h-6.796h-6.795
				V74.443z M65.739,97.577c0-1.742,1.414-3.156,3.157-3.156c1.744,0,3.158,1.414,3.158,3.156v6.656c0,0.215-0.035,0.42-0.08,0.619
				h-6.155c-0.045-0.199-0.08-0.404-0.08-0.619V97.577z"/>
		</g>
		<polygon fill="#FCEE21" points="53.583,56.737 53.583,56.737 53.583,56.737 		"/>
		<path fill="#F7941E" d="M80.963,0.649c-2.586-1.257-5.579-0.626-7.477,1.344c-0.482,0.501-0.897,1.084-1.213,1.749L51.241,48.14
			l-37.42,5.429L25.25,65.236l30.652-4.448l0.137-0.02c0.45-0.069,1.941-0.347,3.104-1.068c0.026-0.019,0.054-0.036,0.081-0.055
			c0.078-0.052,0.159-0.104,0.235-0.159c0.076-0.057,0.148-0.119,0.222-0.18c0.026-0.021,0.05-0.042,0.074-0.063
			c1.039-0.914,1.752-2.29,1.946-2.689l0.053-0.112L84.016,9.449C85.572,6.164,84.206,2.227,80.963,0.649z"/>
	</g>
	<g>
		<path fill="#1C75BC" d="M214.829,50.215h5.147c0.653,0,1.062,0.409,1.062,1.063v54.983c0,0.734-0.409,1.143-1.062,1.143h-5.147
			c-0.735,0-1.144-0.408-1.144-1.143V81.833h-12.582v24.428c0,0.734-0.408,1.143-1.062,1.143h-5.147
			c-0.735,0-1.144-0.408-1.144-1.143V51.277c0-0.653,0.408-1.063,1.144-1.063h5.147c0.654,0,1.062,0.409,1.062,1.063v23.774h12.582
			V51.277C213.685,50.624,214.093,50.215,214.829,50.215z"/>
		<path fill="#1C75BC" d="M226.917,95.067c0-6.779,5.229-12.01,12.908-12.01h6.127v-4.493c0-3.676-2.205-6.209-5.882-6.209
			c-3.431,0-5.31,2.287-5.555,5.637c-0.082,0.736-0.409,0.98-1.144,0.98h-4.738c-0.654,0-1.063-0.49-1.063-1.144
			c0.49-7.107,5.311-12.173,12.581-12.173c7.761,0,12.746,5.555,12.746,13.234v16.423c0,7.516-4.902,12.908-12.746,12.908
			C232.227,108.222,226.917,102.747,226.917,95.067z M245.952,95.313v-5.965h-5.882c-3.84,0-6.126,2.533-6.126,5.719
			c0,3.922,2.287,6.453,6.126,6.453C243.828,101.521,245.952,99.071,245.952,95.313z"/>
		<path fill="#1C75BC" d="M259.103,106.261V78.973c0-7.762,5.147-13.316,12.745-13.316c7.598,0,12.745,5.555,12.745,13.316v27.288
			c0,0.734-0.409,1.143-1.144,1.143h-4.739c-0.735,0-1.144-0.408-1.144-1.143V78.729c0-3.84-2.124-6.455-5.719-6.455
			c-3.595,0-5.72,2.615-5.72,6.455v27.532c0,0.734-0.408,1.143-1.143,1.143h-4.738C259.512,107.403,259.103,106.995,259.103,106.261
			z"/>
		<path fill="#1C75BC" d="M290.798,94.985V78.973c0-7.762,5.229-13.316,13.071-13.316c7.925,0,13.072,5.555,13.072,13.316v16.013
			c0,7.762-5.146,13.316-13.072,13.316C296.027,108.302,290.798,102.747,290.798,94.985z M309.916,95.229V78.729
			c0-3.84-2.287-6.455-6.046-6.455c-3.758,0-5.963,2.615-5.963,6.455v16.501c0,3.842,2.206,6.457,5.963,6.457
			C307.628,101.687,309.916,99.071,309.916,95.229z"/>
		<path fill="#1C75BC" d="M323.229,57.24c0-2.45,1.715-4.248,4.167-4.248c2.37,0,4.248,1.798,4.248,4.248
			c0,2.207-1.878,4.168-4.248,4.168C324.944,61.408,323.229,59.61,323.229,57.24z M323.882,106.261V67.617
			c0-0.654,0.409-1.063,1.144-1.063h4.739c0.735,0,1.143,0.408,1.143,1.063v38.644c0,0.734-0.408,1.143-1.143,1.143h-4.739
			C324.291,107.403,323.882,106.995,323.882,106.261z"/>
		<path fill="#1C75BC" d="M355.985,106.261V64.84c0-8.416,5.638-14.625,13.89-14.625h7.189c0.735,0,1.144,0.409,1.144,1.063v4.657
			c0,0.735-0.409,1.144-1.144,1.144h-6.618c-4.248,0-7.108,3.268-7.108,7.924v10.621h12.173c0.654,0,1.063,0.408,1.063,1.063v4.657
			c0,0.654-0.408,1.061-1.063,1.061h-12.173v23.857c0,0.734-0.408,1.143-1.063,1.143h-5.229
			C356.395,107.403,355.985,106.995,355.985,106.261z"/>
		<path fill="#1C75BC" d="M381.227,106.261V80.688c0-8.823,5.719-14.296,13.97-14.296h3.023c0.653,0,1.062,0.407,1.062,1.143v4.412
			c0,0.653-0.409,1.061-1.062,1.061h-2.941c-4.25,0-7.027,2.697-7.027,7.108v26.145c0,0.734-0.409,1.143-1.144,1.143h-4.738
			C381.635,107.403,381.227,106.995,381.227,106.261z"/>
		<path fill="#1C75BC" d="M401.159,94.903V78.891c0.082-7.76,5.147-13.152,12.99-13.152c7.679-0.082,13.072,5.393,13.072,12.908
			c0,7.188-5.229,12.335-12.991,12.335h-6.045v4.248c0,3.76,2.206,6.373,5.964,6.373c3.35,0,5.555-2.451,5.801-6.045
			c0.082-0.734,0.49-1.063,1.144-1.063h4.82c0.654,0,1.062,0.408,1.062,1.063c-0.408,7.598-5.555,12.664-12.908,12.664
			C406.388,108.222,401.159,102.909,401.159,94.903z M414.231,84.608c3.758,0,5.964-2.367,5.964-5.799
			c0-3.921-2.288-6.454-6.046-6.454c-3.84,0-5.964,2.533-5.964,6.454v5.799H414.231z"/>
		<path fill="#1C75BC" d="M432.202,94.903V78.891c0.082-7.76,5.146-13.152,12.99-13.152c7.68-0.082,13.072,5.393,13.072,12.908
			c0,7.188-5.229,12.335-12.991,12.335h-6.045v4.248c0,3.76,2.205,6.373,5.963,6.373c3.35,0,5.556-2.451,5.8-6.045
			c0.083-0.734,0.491-1.063,1.145-1.063h4.82c0.653,0,1.062,0.408,1.062,1.063c-0.408,7.598-5.555,12.664-12.908,12.664
			C437.43,108.222,432.202,102.909,432.202,94.903z M445.273,84.608c3.758,0,5.964-2.367,5.964-5.799
			c0-3.921-2.287-6.454-6.045-6.454c-3.839,0-5.963,2.533-5.963,6.454v5.799H445.273z"/>
		<path fill="#1C75BC" d="M481.461,106.261v-41.83c0-8.905,5.311-15.114,13.726-15.114c8.495,0,14.051,6.209,14.051,15.114v8.333
			c0,8.333-5.474,14.054-13.97,14.054h-6.453v19.443c0,0.734-0.409,1.143-1.063,1.143h-5.229
			C481.87,107.403,481.461,106.995,481.461,106.261z M495.024,79.953c4.248,0,6.781-2.614,6.781-7.025v-8.824
			c0-4.738-2.533-7.842-6.537-7.842c-4.003,0-6.453,3.104-6.453,7.842v15.85H495.024z"/>
		<path fill="#1C75BC" d="M512.177,106.261V80.688c0-8.823,5.719-14.296,13.971-14.296h3.022c0.654,0,1.063,0.407,1.063,1.143v4.412
			c0,0.653-0.408,1.061-1.063,1.061h-2.941c-4.248,0-7.025,2.697-7.025,7.108v26.145c0,0.734-0.408,1.143-1.144,1.143h-4.739
			C512.585,107.403,512.177,106.995,512.177,106.261z"/>
		<path fill="#1C75BC" d="M534.072,57.24c0-2.45,1.715-4.248,4.165-4.248c2.37,0,4.249,1.798,4.249,4.248
			c0,2.207-1.879,4.168-4.249,4.168C535.787,61.408,534.072,59.61,534.072,57.24z M534.723,106.261V67.617
			c0-0.654,0.409-1.063,1.145-1.063h4.739c0.735,0,1.145,0.408,1.145,1.063v38.644c0,0.734-0.409,1.143-1.145,1.143h-4.739
			C535.132,107.403,534.723,106.995,534.723,106.261z"/>
		<path fill="#1C75BC" d="M569.444,66.555h4.984c0.815,0,1.144,0.49,0.981,1.225l-9.233,37.011
			c-0.408,1.959-1.716,2.941-3.678,2.941h-3.349c-2.043,0-3.267-0.982-3.677-2.941l-9.232-37.011
			c-0.162-0.734,0.165-1.225,0.899-1.225h5.065c0.653,0,1.144,0.326,1.226,0.98l7.353,33.579l7.436-33.579
			C568.3,66.881,568.791,66.555,569.444,66.555z"/>
		<path fill="#1C75BC" d="M577.937,95.067c0-6.779,5.23-12.01,12.908-12.01h6.129v-4.493c0-3.676-2.207-6.209-5.883-6.209
			c-3.432,0-5.311,2.287-5.556,5.637c-0.082,0.736-0.409,0.98-1.144,0.98h-4.739c-0.652,0-1.062-0.49-1.062-1.144
			c0.49-7.107,5.311-12.173,12.581-12.173c7.762,0,12.745,5.555,12.745,13.234v16.423c0,7.516-4.902,12.908-12.745,12.908
			C583.249,108.222,577.937,102.747,577.937,95.067z M596.974,95.313v-5.965h-5.883c-3.841,0-6.127,2.533-6.127,5.719
			c0,3.922,2.286,6.453,6.127,6.453C594.85,101.521,596.974,99.071,596.974,95.313z"/>
		<path fill="#1C75BC" d="M628.181,102.095v4.492c0,0.654-0.409,1.063-1.145,1.063h-1.227c-8.087,0-12.907-5.475-12.907-14.459
			V72.928h-4.575c-0.654,0-1.062-0.409-1.062-1.063v-4.248c0-0.654,0.407-1.063,1.062-1.063h4.575V56.016
			c0-0.734,0.409-1.144,1.145-1.144h4.737c0.653,0,1.063,0.409,1.063,1.144v10.539h6.291c0.653,0,1.062,0.408,1.062,1.063v4.248
			c0,0.653-0.408,1.063-1.062,1.063h-6.291v20.343c0,5.146,2.124,7.762,6.291,7.762h0.898
			C627.772,101.032,628.181,101.44,628.181,102.095z"/>
		<path fill="#1C75BC" d="M631.692,94.903V78.891c0.08-7.76,5.146-13.152,12.987-13.152c7.681-0.082,13.073,5.393,13.073,12.908
			c0,7.188-5.229,12.335-12.99,12.335h-6.045v4.248c0,3.76,2.206,6.373,5.962,6.373c3.352,0,5.557-2.451,5.804-6.045
			c0.08-0.734,0.488-1.063,1.143-1.063h4.82c0.653,0,1.063,0.408,1.063,1.063c-0.409,7.598-5.556,12.664-12.909,12.664
			C636.919,108.222,631.692,102.909,631.692,94.903z M644.762,84.608c3.759,0,5.965-2.367,5.965-5.799
			c0-3.921-2.288-6.454-6.048-6.454c-3.838,0-5.962,2.533-5.962,6.454v5.799H644.762z"/>
		<path fill="#1C75BC" d="M704.887,51.277v4.657c0,0.735-0.408,1.144-1.145,1.144h-8.823v49.183c0,0.734-0.408,1.143-1.144,1.143
			h-5.146c-0.653,0-1.063-0.408-1.063-1.143V57.078h-8.904c-0.653,0-1.062-0.408-1.062-1.144v-4.657
			c0-0.653,0.408-1.063,1.062-1.063h25.081C704.479,50.215,704.887,50.624,704.887,51.277z"/>
		<path fill="#1C75BC" d="M702.925,94.985V78.973c0-7.762,5.229-13.316,13.071-13.316c7.924,0,13.072,5.555,13.072,13.316v16.013
			c0,7.762-5.148,13.316-13.072,13.316C708.155,108.302,702.925,102.747,702.925,94.985z M722.042,95.229V78.729
			c0-3.84-2.288-6.455-6.046-6.455c-3.759,0-5.964,2.615-5.964,6.455v16.501c0,3.842,2.205,6.457,5.964,6.457
			C719.754,101.687,722.042,99.071,722.042,95.229z"/>
		<path fill="#1C75BC" d="M740.339,66.555c0.736,0,1.145,0.408,1.145,1.144v27.531c0,3.842,2.124,6.457,5.718,6.457
			c3.595,0,5.719-2.615,5.719-6.457V67.698c0-0.735,0.409-1.144,1.145-1.144h4.738c0.736,0,1.145,0.408,1.145,1.144v27.287
			c0,7.762-5.148,13.316-12.746,13.316c-7.597,0-12.744-5.555-12.744-13.316V67.698c0-0.735,0.408-1.144,1.144-1.144H740.339z"/>
		<path fill="#1C75BC" d="M766.153,106.261V80.688c0-8.823,5.719-14.296,13.971-14.296h3.022c0.654,0,1.063,0.407,1.063,1.143v4.412
			c0,0.653-0.408,1.061-1.063,1.061h-2.941c-4.248,0-7.025,2.697-7.025,7.108v26.145c0,0.734-0.408,1.143-1.144,1.143h-4.738
			C766.561,107.403,766.153,106.995,766.153,106.261z"/>
		<path fill="#1C75BC" d="M804.956,93.19V64.35c0-8.906,5.637-15.033,14.134-15.033c8.168,0,13.807,6.127,14.051,14.869
			c0,0.734-0.409,1.143-1.063,1.143h-5.227c-0.653,0-1.063-0.408-1.146-1.143c-0.243-4.984-2.695-7.924-6.615-7.924
			c-4.168,0-6.701,3.021-6.701,7.842v29.413c0,4.818,2.86,7.842,7.027,7.842c4.084,0,6.943-3.023,6.943-7.271V82.976h-5.638
			c-0.734,0-1.143-0.408-1.143-1.061v-4.331c0-0.735,0.408-1.144,1.143-1.144h9.642c2.124,0,3.35,1.226,3.35,3.35v13.889
			c0,8.416-5.884,14.623-14.38,14.623C810.835,108.302,804.956,102.095,804.956,93.19z"/>
		<path fill="#1C75BC" d="M845.31,66.555c0.735,0,1.145,0.408,1.145,1.144v27.531c0,3.842,2.124,6.457,5.718,6.457
			c3.595,0,5.719-2.615,5.719-6.457V67.698c0-0.735,0.409-1.144,1.146-1.144h4.737c0.736,0,1.144,0.408,1.144,1.144v27.287
			c0,7.762-5.146,13.316-12.745,13.316c-7.597,0-12.744-5.555-12.744-13.316V67.698c0-0.735,0.407-1.144,1.143-1.144H845.31z"/>
		<path fill="#1C75BC" d="M872.103,57.24c0-2.45,1.716-4.248,4.166-4.248c2.37,0,4.248,1.798,4.248,4.248
			c0,2.207-1.878,4.168-4.248,4.168C873.819,61.408,872.103,59.61,872.103,57.24z M872.755,106.261V67.617
			c0-0.654,0.409-1.063,1.146-1.063h4.738c0.735,0,1.144,0.408,1.144,1.063v38.644c0,0.734-0.408,1.143-1.144,1.143h-4.738
			C873.165,107.403,872.755,106.995,872.755,106.261z"/>
		<path fill="#1C75BC" d="M911.726,51.277v43.708c0,7.762-5.229,13.316-12.99,13.316c-7.843,0-12.99-5.555-12.99-13.316V78.973
			c0-7.762,4.821-13.316,12.173-13.316c2.858,0,5.148,1.144,6.781,3.023V51.277c0-0.653,0.408-1.063,1.144-1.063h4.739
			C911.317,50.215,911.726,50.624,911.726,51.277z M904.7,78.729c0-3.84-2.205-6.373-5.964-6.373s-6.045,2.533-6.045,6.373v16.501
			c0,3.842,2.286,6.373,6.045,6.373s5.964-2.531,5.964-6.373V78.729z"/>
		<path fill="#1C75BC" d="M917.688,94.903V78.891c0.08-7.76,5.147-13.152,12.99-13.152c7.68-0.082,13.072,5.393,13.072,12.908
			c0,7.188-5.229,12.335-12.991,12.335h-6.046v4.248c0,3.76,2.206,6.373,5.965,6.373c3.35,0,5.556-2.451,5.801-6.045
			c0.08-0.734,0.49-1.063,1.145-1.063h4.819c0.653,0,1.062,0.408,1.062,1.063c-0.408,7.598-5.556,12.664-12.907,12.664
			C922.917,108.222,917.688,102.909,917.688,94.903z M930.759,84.608c3.759,0,5.964-2.367,5.964-5.799
			c0-3.921-2.288-6.454-6.045-6.454c-3.841,0-5.965,2.533-5.965,6.454v5.799H930.759z"/>
	</g>
</g>
</svg>
