<?xml version="1.0" encoding="utf-8"?>
<!-- Generator: Adobe Illustrator 16.0.0, SVG Export Plug-In . SVG Version: 6.00 Build 0)  -->
<!DOCTYPE svg PUBLIC "-//W3C//DTD SVG 1.1//EN" "http://www.w3.org/Graphics/SVG/1.1/DTD/svg11.dtd">
<svg version="1.1" id="Layer_1" xmlns="http://www.w3.org/2000/svg" xmlns:xlink="http://www.w3.org/1999/xlink" x="0px" y="0px"
	 width="450.658px" height="157.619px" viewBox="0 0 450.658 157.619" enable-background="new 0 0 450.658 157.619"
	 xml:space="preserve">
<g>
	<g>
		<path fill="#1D76BB" d="M203.969,30.526h4.733c0.602,0,0.976,0.379,0.976,0.991v51.273c0,0.687-0.375,1.067-0.976,1.067h-4.733
			c-0.675,0-1.053-0.381-1.053-1.067V60.012H191.35v22.779c0,0.687-0.378,1.067-0.978,1.067h-4.733
			c-0.678,0-1.052-0.381-1.052-1.067V31.518c0-0.612,0.375-0.991,1.052-0.991h4.733c0.599,0,0.978,0.379,0.978,0.991v22.169h11.566
			V31.518C202.916,30.905,203.294,30.526,203.969,30.526z"/>
		<path fill="#1D76BB" d="M215.838,72.355c0-6.325,4.808-11.201,11.865-11.201h5.636v-4.189c0-3.429-2.03-5.791-5.407-5.791
			c-3.156,0-4.883,2.132-5.112,5.257c-0.075,0.686-0.375,0.914-1.051,0.914h-4.355c-0.603,0-0.978-0.456-0.978-1.066
			c0.45-6.628,4.883-11.352,11.57-11.352c7.137,0,11.716,5.181,11.716,12.343v15.313c0,7.009-4.504,12.037-11.716,12.037
			C220.721,84.62,215.838,79.516,215.838,72.355z M233.34,72.583v-5.562h-5.407c-3.531,0-5.636,2.361-5.636,5.334
			c0,3.655,2.105,6.018,5.636,6.018C231.388,78.373,233.34,76.088,233.34,72.583z"/>
		<path fill="#1D76BB" d="M246.184,82.791V57.345c0-7.237,4.733-12.418,11.72-12.418c6.989,0,11.72,5.181,11.72,12.418v25.446
			c0,0.687-0.375,1.067-1.051,1.067h-4.359c-0.674,0-1.049-0.381-1.049-1.067V57.116c0-3.58-1.956-6.018-5.261-6.018
			s-5.257,2.438-5.257,6.018v25.675c0,0.687-0.376,1.067-1.051,1.067h-4.358C246.562,83.858,246.184,83.478,246.184,82.791z"/>
		<path fill="#1D76BB" d="M276.084,72.278V57.345c0-7.237,4.806-12.418,12.02-12.418c7.287,0,12.021,5.181,12.021,12.418v14.934
			c0,7.237-4.733,12.418-12.021,12.418C280.89,84.696,276.084,79.516,276.084,72.278z M293.659,72.506v-15.39
			c0-3.58-2.102-6.018-5.555-6.018c-3.457,0-5.485,2.438-5.485,6.018v15.39c0,3.582,2.028,6.019,5.485,6.019
			C291.557,78.524,293.659,76.088,293.659,72.506z"/>
		<path fill="#1D76BB" d="M306.655,37.08c0-2.286,1.578-3.964,3.832-3.964c2.178,0,3.907,1.678,3.907,3.964
			c0,2.057-1.729,3.885-3.907,3.885C308.233,40.965,306.655,39.29,306.655,37.08z M307.256,82.791V46.756
			c0-0.611,0.375-0.991,1.052-0.991h4.356c0.677,0,1.053,0.38,1.053,0.991v36.035c0,0.687-0.376,1.067-1.053,1.067h-4.356
			C307.631,83.858,307.256,83.478,307.256,82.791z"/>
		<path fill="#1D76BB" d="M338.281,82.791V44.165c0-7.848,5.182-13.639,12.771-13.639h6.611c0.676,0,1.051,0.379,1.051,0.991v4.341
			c0,0.688-0.375,1.067-1.051,1.067h-6.086c-3.905,0-6.533,3.049-6.533,7.393v9.902h11.191c0.601,0,0.978,0.383,0.978,0.991v4.343
			c0,0.609-0.377,0.988-0.978,0.988h-11.191v22.248c0,0.687-0.378,1.067-0.977,1.067h-4.81
			C338.654,83.858,338.281,83.478,338.281,82.791z"/>
		<path fill="#1D76BB" d="M362.242,82.791V58.944c0-8.228,5.261-13.332,12.848-13.332h2.778c0.602,0,0.978,0.381,0.978,1.065v4.115
			c0,0.608-0.376,0.991-0.978,0.991h-2.703c-3.905,0-6.461,2.514-6.461,6.628v24.379c0,0.687-0.378,1.067-1.052,1.067h-4.357
			C362.621,83.858,362.242,83.478,362.242,82.791z"/>
		<path fill="#1D76BB" d="M381.323,72.2V57.27c0.074-7.238,4.733-12.267,11.946-12.267c7.062-0.076,12.021,5.028,12.021,12.037
			c0,6.703-4.809,11.505-11.945,11.505h-5.561v3.961c0,3.505,2.028,5.943,5.485,5.943c3.078,0,5.106-2.285,5.332-5.639
			c0.074-0.685,0.452-0.989,1.052-0.989h4.434c0.6,0,0.978,0.379,0.978,0.989c-0.378,7.086-5.112,11.81-11.87,11.81
			C386.131,84.62,381.323,79.669,381.323,72.2z M393.344,62.603c3.456,0,5.48-2.209,5.48-5.409c0-3.657-2.1-6.02-5.556-6.02
			c-3.532,0-5.485,2.362-5.485,6.02v5.409H393.344z"/>
		<path fill="#1D76BB" d="M410.621,72.2V57.27c0.075-7.238,4.732-12.267,11.945-12.267c7.062-0.076,12.021,5.028,12.021,12.037
			c0,6.703-4.81,11.505-11.945,11.505h-5.561v3.961c0,3.505,2.029,5.943,5.485,5.943c3.077,0,5.108-2.285,5.332-5.639
			c0.075-0.685,0.452-0.989,1.052-0.989h4.434c0.6,0,0.974,0.379,0.974,0.989c-0.374,7.086-5.108,11.81-11.866,11.81
			C415.428,84.62,410.621,79.669,410.621,72.2z M422.641,62.603c3.455,0,5.482-2.209,5.482-5.409c0-3.657-2.102-6.02-5.558-6.02
			c-3.531,0-5.485,2.362-5.485,6.02v5.409H422.641z"/>
	</g>
	<g>
		<path fill="#1D76BB" d="M184.586,126.005v-22.271c0-4.741,2.788-8.046,7.206-8.046c4.462,0,7.377,3.305,7.377,8.046v4.437
			c0,4.438-2.876,7.482-7.334,7.482h-3.386v10.353c0,0.393-0.216,0.609-0.559,0.609h-2.746
			C184.802,126.614,184.586,126.397,184.586,126.005z M191.708,111.997c2.229,0,3.56-1.391,3.56-3.74v-4.699
			c0-2.522-1.331-4.174-3.433-4.174c-2.1,0-3.386,1.651-3.386,4.174v8.439H191.708z"/>
		<path fill="#1D76BB" d="M201.143,126.005v-13.616c0-4.697,3.002-7.611,7.334-7.611h1.588c0.341,0,0.557,0.218,0.557,0.609v2.347
			c0,0.349-0.216,0.567-0.557,0.567h-1.545c-2.232,0-3.69,1.436-3.69,3.784v13.92c0,0.393-0.212,0.609-0.6,0.609h-2.489
			C201.359,126.614,201.143,126.397,201.143,126.005z"/>
		<path fill="#1D76BB" d="M213.065,99.905c0-1.305,0.899-2.264,2.189-2.264c1.242,0,2.229,0.959,2.229,2.264
			c0,1.174-0.986,2.218-2.229,2.218C213.965,102.123,213.065,101.166,213.065,99.905z M213.408,126.005V105.43
			c0-0.348,0.216-0.565,0.599-0.565h2.489c0.387,0,0.599,0.218,0.599,0.565v20.575c0,0.393-0.212,0.609-0.599,0.609h-2.489
			C213.625,126.614,213.408,126.397,213.408,126.005z"/>
		<path fill="#1D76BB" d="M232.066,104.864h2.616c0.428,0,0.599,0.262,0.515,0.651l-4.849,19.706
			c-0.212,1.043-0.897,1.565-1.929,1.565h-1.757c-1.074,0-1.719-0.522-1.931-1.565l-4.848-19.706
			c-0.083-0.39,0.088-0.651,0.471-0.651h2.66c0.343,0,0.6,0.174,0.643,0.522l3.862,17.878l3.902-17.878
			C231.463,105.038,231.722,104.864,232.066,104.864z"/>
		<path fill="#1D76BB" d="M236.955,120.047c0-3.612,2.744-6.396,6.776-6.396h3.219v-2.392c0-1.959-1.158-3.307-3.092-3.307
			c-1.8,0-2.787,1.217-2.915,3.001c-0.042,0.392-0.213,0.522-0.6,0.522h-2.489c-0.343,0-0.559-0.261-0.559-0.608
			c0.258-3.784,2.791-6.481,6.606-6.481c4.075,0,6.69,2.958,6.69,7.046v8.745c0,4.002-2.573,6.871-6.69,6.871
			C239.743,127.048,236.955,124.136,236.955,120.047z M246.95,120.177V117h-3.092c-2.012,0-3.215,1.349-3.215,3.047
			c0,2.088,1.203,3.437,3.215,3.437C245.83,123.483,246.95,122.176,246.95,120.177z"/>
		<path fill="#1D76BB" d="M263.76,123.787v2.392c0,0.349-0.215,0.566-0.603,0.566h-0.643c-4.246,0-6.774-2.914-6.774-7.7v-10.788
			h-2.405c-0.341,0-0.554-0.219-0.554-0.565v-2.262c0-0.348,0.213-0.565,0.554-0.565h2.405v-5.611c0-0.392,0.213-0.609,0.6-0.609
			h2.487c0.344,0,0.557,0.218,0.557,0.609v5.611h3.302c0.344,0,0.559,0.218,0.559,0.565v2.262c0,0.347-0.214,0.565-0.559,0.565
			h-3.302v10.83c0,2.742,1.117,4.134,3.302,4.134h0.471C263.545,123.221,263.76,123.439,263.76,123.787z"/>
		<path fill="#1D76BB" d="M266.034,119.958v-8.526c0.041-4.134,2.701-7.002,6.818-7.002c4.032-0.044,6.864,2.868,6.864,6.871
			c0,3.829-2.747,6.57-6.819,6.57h-3.175v2.262c0,2.002,1.158,3.393,3.13,3.393c1.759,0,2.917-1.304,3.045-3.218
			c0.043-0.394,0.259-0.566,0.602-0.566h2.529c0.343,0,0.559,0.217,0.559,0.566c-0.216,4.043-2.915,6.74-6.778,6.74
			C268.777,127.048,266.034,124.223,266.034,119.958z M272.896,114.478c1.973,0,3.131-1.262,3.131-3.089
			c0-2.089-1.202-3.437-3.175-3.437c-2.017,0-3.13,1.348-3.13,3.437v3.089H272.896z"/>
		<path fill="#1D76BB" d="M305.319,96.73v2.479c0,0.393-0.215,0.609-0.601,0.609h-4.633v26.187c0,0.393-0.211,0.609-0.599,0.609
			h-2.705c-0.34,0-0.555-0.217-0.555-0.609V99.818h-4.678c-0.343,0-0.555-0.217-0.555-0.609V96.73c0-0.35,0.212-0.567,0.555-0.567
			h13.169C305.104,96.163,305.319,96.381,305.319,96.73z"/>
		<path fill="#1D76BB" d="M304.718,120.002v-8.526c0-4.132,2.745-7.09,6.862-7.09c4.159,0,6.861,2.958,6.861,7.09v8.526
			c0,4.134-2.702,7.09-6.861,7.09C307.463,127.092,304.718,124.136,304.718,120.002z M314.752,120.133v-8.788
			c0-2.045-1.199-3.436-3.172-3.436s-3.13,1.391-3.13,3.436v8.788c0,2.043,1.157,3.436,3.13,3.436S314.752,122.176,314.752,120.133z
			"/>
		<path fill="#1D76BB" d="M324.79,104.864c0.388,0,0.601,0.218,0.601,0.607v14.661c0,2.043,1.117,3.436,3.003,3.436
			c1.889,0,3.005-1.393,3.005-3.436v-14.661c0-0.39,0.212-0.607,0.599-0.607h2.486c0.385,0,0.6,0.218,0.6,0.607v14.53
			c0,4.134-2.699,7.09-6.689,7.09s-6.69-2.956-6.69-7.09v-14.53c0-0.39,0.216-0.607,0.599-0.607H324.79z"/>
		<path fill="#1D76BB" d="M338.771,126.005v-13.616c0-4.697,3.002-7.611,7.336-7.611h1.586c0.345,0,0.558,0.218,0.558,0.609v2.347
			c0,0.349-0.213,0.567-0.558,0.567h-1.546c-2.227,0-3.688,1.436-3.688,3.784v13.92c0,0.393-0.214,0.609-0.601,0.609h-2.485
			C338.987,126.614,338.771,126.397,338.771,126.005z"/>
		<path fill="#1D76BB" d="M360,119.045v-15.355c0-4.741,2.96-8.002,7.422-8.002c4.288,0,7.247,3.261,7.378,7.915
			c0,0.392-0.217,0.609-0.559,0.609h-2.744c-0.345,0-0.561-0.218-0.6-0.609c-0.132-2.652-1.418-4.219-3.476-4.219
			c-2.189,0-3.519,1.608-3.519,4.174v15.662c0,2.566,1.503,4.176,3.69,4.176c2.144,0,3.644-1.609,3.644-3.872v-5.915h-2.957
			c-0.387,0-0.604-0.219-0.604-0.565v-2.308c0-0.392,0.217-0.608,0.604-0.608h5.061c1.116,0,1.758,0.652,1.758,1.784v7.396
			c0,4.479-3.088,7.784-7.548,7.784C363.086,127.092,360,123.787,360,119.045z"/>
		<path fill="#1D76BB" d="M381.618,104.864c0.387,0,0.6,0.218,0.6,0.607v14.661c0,2.043,1.114,3.436,3.002,3.436
			c1.886,0,3.005-1.393,3.005-3.436v-14.661c0-0.39,0.212-0.607,0.599-0.607h2.487c0.386,0,0.601,0.218,0.601,0.607v14.53
			c0,4.134-2.701,7.09-6.691,7.09c-3.989,0-6.689-2.956-6.689-7.09v-14.53c0-0.39,0.211-0.607,0.598-0.607H381.618z"/>
		<path fill="#1D76BB" d="M396.114,99.905c0-1.305,0.9-2.264,2.187-2.264c1.243,0,2.23,0.959,2.23,2.264
			c0,1.174-0.987,2.218-2.23,2.218C397.014,102.123,396.114,101.166,396.114,99.905z M396.456,126.005V105.43
			c0-0.348,0.217-0.565,0.6-0.565h2.488c0.387,0,0.6,0.218,0.6,0.565v20.575c0,0.393-0.213,0.609-0.6,0.609h-2.488
			C396.672,126.614,396.456,126.397,396.456,126.005z"/>
		<path fill="#1D76BB" d="M417.342,96.73v23.271c0,4.134-2.744,7.09-6.819,7.09c-4.117,0-6.816-2.956-6.816-7.09v-8.526
			c0-4.132,2.527-7.09,6.391-7.09c1.498,0,2.698,0.609,3.559,1.609V96.73c0-0.35,0.212-0.567,0.6-0.567h2.487
			C417.126,96.163,417.342,96.381,417.342,96.73z M413.656,111.345c0-2.045-1.159-3.393-3.133-3.393s-3.175,1.348-3.175,3.393v8.788
			c0,2.043,1.201,3.393,3.175,3.393s3.133-1.35,3.133-3.393V111.345z"/>
		<path fill="#1D76BB" d="M420.901,119.958v-8.526c0.045-4.134,2.705-7.002,6.823-7.002c4.03-0.044,6.862,2.868,6.862,6.871
			c0,3.829-2.745,6.57-6.82,6.57h-3.176v2.262c0,2.002,1.16,3.393,3.134,3.393c1.757,0,2.914-1.304,3.043-3.218
			c0.042-0.394,0.259-0.566,0.603-0.566h2.529c0.343,0,0.558,0.217,0.558,0.566c-0.215,4.043-2.915,6.74-6.777,6.74
			C423.649,127.048,420.901,124.223,420.901,119.958z M427.766,114.478c1.97,0,3.132-1.262,3.132-3.089
			c0-2.089-1.201-3.437-3.174-3.437c-2.019,0-3.134,1.348-3.134,3.437v3.089H427.766z"/>
	</g>
</g>
<g>
	<path fill="#2AA7DF" d="M74.49,120.73l0.109-0.059C74.533,120.706,74.494,120.728,74.49,120.73z"/>
	<path fill="#2AA7DF" d="M81.748,120.732c0,0-0.046-0.026-0.123-0.066L81.748,120.732L81.748,120.732z"/>
	<path fill="#2AA7DF" d="M121.714,101.4l28.671-28.245l-16.133-2.504l-23.66,23.307l-0.101,0.097
		c-0.321,0.324-1.366,1.438-1.886,2.715c-0.011,0.031-0.023,0.062-0.035,0.093c-0.033,0.089-0.068,0.178-0.097,0.27
		c-0.029,0.092-0.051,0.185-0.075,0.277c-0.008,0.031-0.015,0.063-0.023,0.095c-0.309,1.358-0.085,2.896-0.009,3.335l0.022,0.121
		l9.336,51.258c0.652,3.582,4.048,5.95,7.586,5.29c2.82-0.526,4.871-2.822,5.261-5.546c0.099-0.692,0.095-1.411-0.038-2.137
		L121.714,101.4z"/>
	<path fill="#3BB34A" d="M154.7,56.515c-0.612-0.321-1.284-0.554-2.005-0.665l-48.059-7.459L87.576,11.459l-7.297,15.333
		l13.765,29.795l0.059,0.128c0.196,0.414,0.892,1.78,1.912,2.696c0.025,0.021,0.05,0.043,0.075,0.063
		c0.072,0.061,0.144,0.124,0.219,0.182c0.076,0.057,0.157,0.108,0.235,0.162c0.026,0.019,0.054,0.035,0.08,0.054
		c1.166,0.74,2.673,1.031,3.106,1.103l0.122,0.02l50.869,7.894c3.557,0.552,6.88-1.918,7.425-5.52
		C158.58,60.497,157.113,57.78,154.7,56.515z"/>
	<path fill="#EB1865" d="M36.119,100.74l-7.962,39.698l14.719-7.144l6.573-32.757l0.027-0.138c0.086-0.451,0.329-1.967,0.048-3.318
		c-0.008-0.032-0.015-0.064-0.022-0.097c-0.022-0.093-0.043-0.187-0.07-0.278c-0.026-0.093-0.062-0.182-0.093-0.272
		c-0.011-0.03-0.022-0.061-0.032-0.091c-0.502-1.299-1.542-2.44-1.849-2.759l-0.087-0.09L11.132,56.487
		c-2.532-2.586-6.655-2.604-9.209-0.039c-2.037,2.046-2.454,5.113-1.259,7.584c0.304,0.628,0.707,1.22,1.22,1.744L36.119,100.74z"/>
	<path fill="#1D76BB" d="M33.553,157.523c0.681-0.119,1.354-0.346,1.995-0.696l42.755-23.446l35.618,19.005l-3.325-16.685
		l-28.737-15.332l-0.122-0.066c-0.404-0.21-1.772-0.872-3.132-0.979c-0.032-0.001-0.064-0.003-0.097-0.005
		c-0.096-0.004-0.189-0.01-0.283-0.01c-0.096,0.001-0.19,0.008-0.284,0.014c-0.033,0.001-0.064,0.005-0.098,0.006
		c-1.369,0.124-2.744,0.813-3.132,1.021l-0.108,0.06l-45.256,24.817c-3.163,1.735-4.339,5.737-2.627,8.94
		C28.086,156.722,30.875,157.99,33.553,157.523z"/>
	<g>
		<path fill="#1D76BB" d="M74.503,115.131l0.11-0.061c0.399-0.211,1.81-0.909,3.217-1.034c0.033-0.002,0.065-0.005,0.1-0.007
			c0.097-0.004,0.193-0.013,0.29-0.014c0.098,0,0.193,0.007,0.291,0.012c0.033,0.001,0.067,0.002,0.1,0.004
			c1.396,0.107,2.8,0.779,3.215,0.992l0.125,0.067l19.925,10.496V104.56h-4.237V90.957v-2.576v-1.416h-2.08v1.416h-5.27v-8.14h0.971
			l-3.05-2.219v-4.021c0.104,0,0.199,0,0.276,0c1.664,0,1.803-2.357,1.803-2.357c-5.546,1.941-11.926-3.883-11.926-3.883
			s-6.379,5.824-11.926,3.883c0,0,0.14,2.357,1.804,2.357c0.077,0,0.173,0,0.276,0v4.021l-3.051,2.219h0.971v8.14h-5.269v-1.416
			h-2.081v1.416v2.576v13.603h-4.236v21.213L74.503,115.131z M81.647,104.233c0,0.215-0.029,0.42-0.077,0.62h-6.157
			c-0.044-0.2-0.076-0.405-0.076-0.62v-6.655c0-1.742,1.412-3.156,3.157-3.156c1.746,0,3.153,1.414,3.153,3.156V104.233z
			 M75.693,84.122c0-1.475,1.194-2.67,2.669-2.67s2.67,1.195,2.67,2.67c0,1.474-1.195,2.67-2.67,2.67S75.693,85.596,75.693,84.122z
			 M90.476,97.578v6.655c0,0.215-0.029,0.42-0.075,0.62h-6.157c-0.049-0.2-0.076-0.405-0.076-0.62v-6.655
			c0-1.742,1.407-3.156,3.155-3.156C89.066,94.422,90.476,95.836,90.476,97.578z M71.567,74.443h6.795h6.796v2.438h-6.796h-6.795
			V74.443z M65.739,97.578c0-1.742,1.414-3.156,3.156-3.156c1.744,0,3.158,1.414,3.158,3.156v6.655c0,0.215-0.035,0.42-0.08,0.62
			h-6.154c-0.046-0.2-0.08-0.405-0.08-0.62V97.578z"/>
	</g>
	<polygon fill="#FAED20" points="53.583,56.737 53.583,56.737 53.583,56.737 	"/>
	<path fill="#F69321" d="M80.963,0.649c-2.586-1.257-5.579-0.626-7.477,1.344c-0.482,0.501-0.897,1.084-1.213,1.749L51.241,48.14
		l-37.42,5.429L25.25,65.236l30.652-4.448l0.137-0.02c0.45-0.069,1.941-0.347,3.104-1.068c0.026-0.019,0.054-0.036,0.081-0.055
		c0.078-0.052,0.159-0.104,0.235-0.159c0.076-0.057,0.148-0.119,0.222-0.18c0.026-0.021,0.05-0.042,0.074-0.063
		c1.039-0.914,1.752-2.29,1.946-2.689l0.053-0.112L84.016,9.449C85.572,6.164,84.206,2.227,80.963,0.649z"/>
</g>
</svg>
