<?xml version="1.0" encoding="utf-8"?>
<!-- Generator: Adobe Illustrator 23.0.1, SVG Export Plug-In . SVG Version: 6.00 Build 0)  -->
<svg version="1.1" id="Layer_1" xmlns="http://www.w3.org/2000/svg" xmlns:xlink="http://www.w3.org/1999/xlink" x="0px" y="0px"
	 viewBox="0 0 450.7 157.6" style="enable-background:new 0 0 450.7 157.6;" xml:space="preserve">
<style type="text/css">
	.st0{fill:#FFFFFF;}
	.st1{fill:#2AA7DF;}
	.st2{fill:#3BB34A;}
	.st3{fill:#EB1865;}
	.st4{fill:#1D76BB;}
	.st5{fill:#FAED20;}
	.st6{fill:#F69321;}
</style>
<g>
	<g>
		<path class="st0" d="M204,30.5h4.7c0.6,0,1,0.4,1,1v51.3c0,0.7-0.4,1.1-1,1.1H204c-0.7,0-1.1-0.4-1.1-1.1V60h-11.6v22.8
			c0,0.7-0.4,1.1-1,1.1h-4.7c-0.7,0-1.1-0.4-1.1-1.1V31.5c0-0.6,0.4-1,1.1-1h4.7c0.6,0,1,0.4,1,1v22.2h11.6V31.5
			C202.9,30.9,203.3,30.5,204,30.5z"/>
		<path class="st0" d="M215.8,72.4c0-6.3,4.8-11.2,11.9-11.2h5.6V57c0-3.4-2-5.8-5.4-5.8c-3.2,0-4.9,2.1-5.1,5.3
			c-0.1,0.7-0.4,0.9-1.1,0.9h-4.4c-0.6,0-1-0.5-1-1.1c0.4-6.6,4.9-11.4,11.6-11.4c7.1,0,11.7,5.2,11.7,12.3v15.3c0,7-4.5,12-11.7,12
			C220.7,84.6,215.8,79.5,215.8,72.4z M233.3,72.6V67h-5.4c-3.5,0-5.6,2.4-5.6,5.3c0,3.7,2.1,6,5.6,6
			C231.4,78.4,233.3,76.1,233.3,72.6z"/>
		<path class="st0" d="M246.2,82.8V57.3c0-7.2,4.7-12.4,11.7-12.4c7,0,11.7,5.2,11.7,12.4v25.4c0,0.7-0.4,1.1-1.1,1.1h-4.4
			c-0.7,0-1-0.4-1-1.1V57.1c0-3.6-2-6-5.3-6s-5.3,2.4-5.3,6v25.7c0,0.7-0.4,1.1-1.1,1.1h-4.4C246.6,83.9,246.2,83.5,246.2,82.8z"/>
		<path class="st0" d="M276.1,72.3V57.3c0-7.2,4.8-12.4,12-12.4c7.3,0,12,5.2,12,12.4v14.9c0,7.2-4.7,12.4-12,12.4
			C280.9,84.7,276.1,79.5,276.1,72.3z M293.7,72.5V57.1c0-3.6-2.1-6-5.6-6c-3.5,0-5.5,2.4-5.5,6v15.4c0,3.6,2,6,5.5,6
			C291.6,78.5,293.7,76.1,293.7,72.5z"/>
		<path class="st0" d="M306.7,37.1c0-2.3,1.6-4,3.8-4c2.2,0,3.9,1.7,3.9,4c0,2.1-1.7,3.9-3.9,3.9C308.2,41,306.7,39.3,306.7,37.1z
			 M307.3,82.8v-36c0-0.6,0.4-1,1.1-1h4.4c0.7,0,1.1,0.4,1.1,1v36c0,0.7-0.4,1.1-1.1,1.1h-4.4C307.6,83.9,307.3,83.5,307.3,82.8z"/>
		<path class="st0" d="M338.3,82.8V44.2c0-7.8,5.2-13.6,12.8-13.6h6.6c0.7,0,1.1,0.4,1.1,1v4.3c0,0.7-0.4,1.1-1.1,1.1h-6.1
			c-3.9,0-6.5,3-6.5,7.4v9.9h11.2c0.6,0,1,0.4,1,1v4.3c0,0.6-0.4,1-1,1H345v22.2c0,0.7-0.4,1.1-1,1.1h-4.8
			C338.7,83.9,338.3,83.5,338.3,82.8z"/>
		<path class="st0" d="M362.2,82.8V58.9c0-8.2,5.3-13.3,12.8-13.3h2.8c0.6,0,1,0.4,1,1.1v4.1c0,0.6-0.4,1-1,1h-2.7
			c-3.9,0-6.5,2.5-6.5,6.6v24.4c0,0.7-0.4,1.1-1.1,1.1h-4.4C362.6,83.9,362.2,83.5,362.2,82.8z"/>
		<path class="st0" d="M381.3,72.2V57.3c0.1-7.2,4.7-12.3,11.9-12.3c7.1-0.1,12,5,12,12c0,6.7-4.8,11.5-11.9,11.5h-5.6v4
			c0,3.5,2,5.9,5.5,5.9c3.1,0,5.1-2.3,5.3-5.6c0.1-0.7,0.5-1,1.1-1h4.4c0.6,0,1,0.4,1,1c-0.4,7.1-5.1,11.8-11.9,11.8
			C386.1,84.6,381.3,79.7,381.3,72.2z M393.3,62.6c3.5,0,5.5-2.2,5.5-5.4c0-3.7-2.1-6-5.6-6c-3.5,0-5.5,2.4-5.5,6v5.4H393.3z"/>
		<path class="st0" d="M410.6,72.2V57.3c0.1-7.2,4.7-12.3,11.9-12.3c7.1-0.1,12,5,12,12c0,6.7-4.8,11.5-11.9,11.5h-5.6v4
			c0,3.5,2,5.9,5.5,5.9c3.1,0,5.1-2.3,5.3-5.6c0.1-0.7,0.5-1,1.1-1h4.4c0.6,0,1,0.4,1,1c-0.4,7.1-5.1,11.8-11.9,11.8
			C415.4,84.6,410.6,79.7,410.6,72.2z M422.6,62.6c3.5,0,5.5-2.2,5.5-5.4c0-3.7-2.1-6-5.6-6c-3.5,0-5.5,2.4-5.5,6v5.4H422.6z"/>
	</g>
	<g>
		<path class="st0" d="M184.6,126v-22.3c0-4.7,2.8-8,7.2-8c4.5,0,7.4,3.3,7.4,8v4.4c0,4.4-2.9,7.5-7.3,7.5h-3.4V126
			c0,0.4-0.2,0.6-0.6,0.6h-2.7C184.8,126.6,184.6,126.4,184.6,126z M191.7,112c2.2,0,3.6-1.4,3.6-3.7v-4.7c0-2.5-1.3-4.2-3.4-4.2
			c-2.1,0-3.4,1.7-3.4,4.2v8.4H191.7z"/>
		<path class="st0" d="M201.1,126v-13.6c0-4.7,3-7.6,7.3-7.6h1.6c0.3,0,0.6,0.2,0.6,0.6v2.3c0,0.3-0.2,0.6-0.6,0.6h-1.5
			c-2.2,0-3.7,1.4-3.7,3.8V126c0,0.4-0.2,0.6-0.6,0.6h-2.5C201.4,126.6,201.1,126.4,201.1,126z"/>
		<path class="st0" d="M213.1,99.9c0-1.3,0.9-2.3,2.2-2.3c1.2,0,2.2,1,2.2,2.3c0,1.2-1,2.2-2.2,2.2
			C214,102.1,213.1,101.2,213.1,99.9z M213.4,126v-20.6c0-0.3,0.2-0.6,0.6-0.6h2.5c0.4,0,0.6,0.2,0.6,0.6V126c0,0.4-0.2,0.6-0.6,0.6
			H214C213.6,126.6,213.4,126.4,213.4,126z"/>
		<path class="st0" d="M232.1,104.9h2.6c0.4,0,0.6,0.3,0.5,0.7l-4.8,19.7c-0.2,1-0.9,1.6-1.9,1.6h-1.8c-1.1,0-1.7-0.5-1.9-1.6
			l-4.8-19.7c-0.1-0.4,0.1-0.7,0.5-0.7h2.7c0.3,0,0.6,0.2,0.6,0.5l3.9,17.9l3.9-17.9C231.5,105,231.7,104.9,232.1,104.9z"/>
		<path class="st0" d="M237,120c0-3.6,2.7-6.4,6.8-6.4h3.2v-2.4c0-2-1.2-3.3-3.1-3.3c-1.8,0-2.8,1.2-2.9,3c0,0.4-0.2,0.5-0.6,0.5
			h-2.5c-0.3,0-0.6-0.3-0.6-0.6c0.3-3.8,2.8-6.5,6.6-6.5c4.1,0,6.7,3,6.7,7v8.7c0,4-2.6,6.9-6.7,6.9C239.7,127,237,124.1,237,120z
			 M246.9,120.2V117h-3.1c-2,0-3.2,1.3-3.2,3c0,2.1,1.2,3.4,3.2,3.4C245.8,123.5,246.9,122.2,246.9,120.2z"/>
		<path class="st0" d="M263.8,123.8v2.4c0,0.3-0.2,0.6-0.6,0.6h-0.6c-4.2,0-6.8-2.9-6.8-7.7v-10.8h-2.4c-0.3,0-0.6-0.2-0.6-0.6v-2.3
			c0-0.3,0.2-0.6,0.6-0.6h2.4v-5.6c0-0.4,0.2-0.6,0.6-0.6h2.5c0.3,0,0.6,0.2,0.6,0.6v5.6h3.3c0.3,0,0.6,0.2,0.6,0.6v2.3
			c0,0.3-0.2,0.6-0.6,0.6h-3.3v10.8c0,2.7,1.1,4.1,3.3,4.1h0.5C263.5,123.2,263.8,123.4,263.8,123.8z"/>
		<path class="st0" d="M266,120v-8.5c0-4.1,2.7-7,6.8-7c4,0,6.9,2.9,6.9,6.9c0,3.8-2.7,6.6-6.8,6.6h-3.2v2.3c0,2,1.2,3.4,3.1,3.4
			c1.8,0,2.9-1.3,3-3.2c0-0.4,0.3-0.6,0.6-0.6h2.5c0.3,0,0.6,0.2,0.6,0.6c-0.2,4-2.9,6.7-6.8,6.7C268.8,127,266,124.2,266,120z
			 M272.9,114.5c2,0,3.1-1.3,3.1-3.1c0-2.1-1.2-3.4-3.2-3.4c-2,0-3.1,1.3-3.1,3.4v3.1H272.9z"/>
		<path class="st0" d="M305.3,96.7v2.5c0,0.4-0.2,0.6-0.6,0.6h-4.6V126c0,0.4-0.2,0.6-0.6,0.6h-2.7c-0.3,0-0.6-0.2-0.6-0.6V99.8
			h-4.7c-0.3,0-0.6-0.2-0.6-0.6v-2.5c0-0.3,0.2-0.6,0.6-0.6h13.2C305.1,96.2,305.3,96.4,305.3,96.7z"/>
		<path class="st0" d="M304.7,120v-8.5c0-4.1,2.7-7.1,6.9-7.1c4.2,0,6.9,3,6.9,7.1v8.5c0,4.1-2.7,7.1-6.9,7.1
			C307.5,127.1,304.7,124.1,304.7,120z M314.8,120.1v-8.8c0-2-1.2-3.4-3.2-3.4s-3.1,1.4-3.1,3.4v8.8c0,2,1.2,3.4,3.1,3.4
			S314.8,122.2,314.8,120.1z"/>
		<path class="st0" d="M324.8,104.9c0.4,0,0.6,0.2,0.6,0.6v14.7c0,2,1.1,3.4,3,3.4c1.9,0,3-1.4,3-3.4v-14.7c0-0.4,0.2-0.6,0.6-0.6
			h2.5c0.4,0,0.6,0.2,0.6,0.6V120c0,4.1-2.7,7.1-6.7,7.1s-6.7-3-6.7-7.1v-14.5c0-0.4,0.2-0.6,0.6-0.6
			C322.3,104.9,324.8,104.9,324.8,104.9z"/>
		<path class="st0" d="M338.8,126v-13.6c0-4.7,3-7.6,7.3-7.6h1.6c0.3,0,0.6,0.2,0.6,0.6v2.3c0,0.3-0.2,0.6-0.6,0.6h-1.5
			c-2.2,0-3.7,1.4-3.7,3.8V126c0,0.4-0.2,0.6-0.6,0.6h-2.5C339,126.6,338.8,126.4,338.8,126z"/>
		<path class="st0" d="M360,119v-15.4c0-4.7,3-8,7.4-8c4.3,0,7.2,3.3,7.4,7.9c0,0.4-0.2,0.6-0.6,0.6h-2.7c-0.3,0-0.6-0.2-0.6-0.6
			c-0.1-2.7-1.4-4.2-3.5-4.2c-2.2,0-3.5,1.6-3.5,4.2v15.7c0,2.6,1.5,4.2,3.7,4.2c2.1,0,3.6-1.6,3.6-3.9v-5.9h-3
			c-0.4,0-0.6-0.2-0.6-0.6v-2.3c0-0.4,0.2-0.6,0.6-0.6h5.1c1.1,0,1.8,0.7,1.8,1.8v7.4c0,4.5-3.1,7.8-7.5,7.8
			C363.1,127.1,360,123.8,360,119z"/>
		<path class="st0" d="M381.6,104.9c0.4,0,0.6,0.2,0.6,0.6v14.7c0,2,1.1,3.4,3,3.4c1.9,0,3-1.4,3-3.4v-14.7c0-0.4,0.2-0.6,0.6-0.6
			h2.5c0.4,0,0.6,0.2,0.6,0.6V120c0,4.1-2.7,7.1-6.7,7.1c-4,0-6.7-3-6.7-7.1v-14.5c0-0.4,0.2-0.6,0.6-0.6
			C379.1,104.9,381.6,104.9,381.6,104.9z"/>
		<path class="st0" d="M396.1,99.9c0-1.3,0.9-2.3,2.2-2.3c1.2,0,2.2,1,2.2,2.3c0,1.2-1,2.2-2.2,2.2
			C397,102.1,396.1,101.2,396.1,99.9z M396.5,126v-20.6c0-0.3,0.2-0.6,0.6-0.6h2.5c0.4,0,0.6,0.2,0.6,0.6V126c0,0.4-0.2,0.6-0.6,0.6
			h-2.5C396.7,126.6,396.5,126.4,396.5,126z"/>
		<path class="st0" d="M417.3,96.7V120c0,4.1-2.7,7.1-6.8,7.1c-4.1,0-6.8-3-6.8-7.1v-8.5c0-4.1,2.5-7.1,6.4-7.1
			c1.5,0,2.7,0.6,3.6,1.6v-9.3c0-0.3,0.2-0.6,0.6-0.6h2.5C417.1,96.2,417.3,96.4,417.3,96.7z M413.7,111.3c0-2-1.2-3.4-3.1-3.4
			s-3.2,1.3-3.2,3.4v8.8c0,2,1.2,3.4,3.2,3.4s3.1-1.3,3.1-3.4V111.3z"/>
		<path class="st0" d="M420.9,120v-8.5c0-4.1,2.7-7,6.8-7c4,0,6.9,2.9,6.9,6.9c0,3.8-2.7,6.6-6.8,6.6h-3.2v2.3c0,2,1.2,3.4,3.1,3.4
			c1.8,0,2.9-1.3,3-3.2c0-0.4,0.3-0.6,0.6-0.6h2.5c0.3,0,0.6,0.2,0.6,0.6c-0.2,4-2.9,6.7-6.8,6.7C423.6,127,420.9,124.2,420.9,120z
			 M427.8,114.5c2,0,3.1-1.3,3.1-3.1c0-2.1-1.2-3.4-3.2-3.4c-2,0-3.1,1.3-3.1,3.4v3.1H427.8z"/>
	</g>
</g>
<g>
	<path class="st1" d="M74.5,120.7l0.1-0.1C74.5,120.7,74.5,120.7,74.5,120.7z"/>
	<path class="st1" d="M81.7,120.7c0,0,0,0-0.1-0.1L81.7,120.7L81.7,120.7z"/>
	<path class="st1" d="M121.7,101.4l28.7-28.2l-16.1-2.5L110.6,94l-0.1,0.1c-0.3,0.3-1.4,1.4-1.9,2.7c0,0,0,0.1,0,0.1
		c0,0.1-0.1,0.2-0.1,0.3c0,0.1-0.1,0.2-0.1,0.3c0,0,0,0.1,0,0.1c-0.3,1.4-0.1,2.9,0,3.3l0,0.1l9.3,51.3c0.7,3.6,4,5.9,7.6,5.3
		c2.8-0.5,4.9-2.8,5.3-5.5c0.1-0.7,0.1-1.4,0-2.1L121.7,101.4z"/>
	<path class="st2" d="M154.7,56.5c-0.6-0.3-1.3-0.6-2-0.7l-48.1-7.5L87.6,11.5l-7.3,15.3L94,56.6l0.1,0.1c0.2,0.4,0.9,1.8,1.9,2.7
		c0,0,0.1,0,0.1,0.1c0.1,0.1,0.1,0.1,0.2,0.2c0.1,0.1,0.2,0.1,0.2,0.2c0,0,0.1,0,0.1,0.1c1.2,0.7,2.7,1,3.1,1.1l0.1,0l50.9,7.9
		c3.6,0.6,6.9-1.9,7.4-5.5C158.6,60.5,157.1,57.8,154.7,56.5z"/>
	<path class="st3" d="M36.1,100.7l-8,39.7l14.7-7.1l6.6-32.8l0-0.1c0.1-0.5,0.3-2,0-3.3c0,0,0-0.1,0-0.1c0-0.1,0-0.2-0.1-0.3
		c0-0.1-0.1-0.2-0.1-0.3c0,0,0-0.1,0-0.1c-0.5-1.3-1.5-2.4-1.8-2.8l-0.1-0.1l-36.2-37c-2.5-2.6-6.7-2.6-9.2,0c-2,2-2.5,5.1-1.3,7.6
		c0.3,0.6,0.7,1.2,1.2,1.7L36.1,100.7z"/>
	<path class="st4" d="M33.6,157.5c0.7-0.1,1.4-0.3,2-0.7l42.8-23.4l35.6,19l-3.3-16.7l-28.7-15.3l-0.1-0.1c-0.4-0.2-1.8-0.9-3.1-1
		c0,0-0.1,0-0.1,0c-0.1,0-0.2,0-0.3,0c-0.1,0-0.2,0-0.3,0c0,0-0.1,0-0.1,0c-1.4,0.1-2.7,0.8-3.1,1l-0.1,0.1l-45.3,24.8
		c-3.2,1.7-4.3,5.7-2.6,8.9C28.1,156.7,30.9,158,33.6,157.5z"/>
	<g>
		<path class="st4" d="M74.5,115.1l0.1-0.1c0.4-0.2,1.8-0.9,3.2-1c0,0,0.1,0,0.1,0c0.1,0,0.2,0,0.3,0c0.1,0,0.2,0,0.3,0
			c0,0,0.1,0,0.1,0c1.4,0.1,2.8,0.8,3.2,1l0.1,0.1l19.9,10.5v-21h-4.2V91v-2.6V87h-2.1v1.4h-5.3v-8.1h1L88.2,78v-4
			c0.1,0,0.2,0,0.3,0c1.7,0,1.8-2.4,1.8-2.4c-5.5,1.9-11.9-3.9-11.9-3.9s-6.4,5.8-11.9,3.9c0,0,0.1,2.4,1.8,2.4c0.1,0,0.2,0,0.3,0v4
			l-3.1,2.2h1v8.1h-5.3V87h-2.1v1.4V91v13.6h-4.2v21.2L74.5,115.1z M81.6,104.2c0,0.2,0,0.4-0.1,0.6h-6.2c0-0.2-0.1-0.4-0.1-0.6
			v-6.7c0-1.7,1.4-3.2,3.2-3.2c1.7,0,3.2,1.4,3.2,3.2V104.2z M75.7,84.1c0-1.5,1.2-2.7,2.7-2.7s2.7,1.2,2.7,2.7
			c0,1.5-1.2,2.7-2.7,2.7S75.7,85.6,75.7,84.1z M90.5,97.6v6.7c0,0.2,0,0.4-0.1,0.6h-6.2c0-0.2-0.1-0.4-0.1-0.6v-6.7
			c0-1.7,1.4-3.2,3.2-3.2C89.1,94.4,90.5,95.8,90.5,97.6z M71.6,74.4h6.8h6.8v2.4h-6.8h-6.8V74.4z M65.7,97.6c0-1.7,1.4-3.2,3.2-3.2
			c1.7,0,3.2,1.4,3.2,3.2v6.7c0,0.2,0,0.4-0.1,0.6h-6.2c0-0.2-0.1-0.4-0.1-0.6C65.7,104.2,65.7,97.6,65.7,97.6z"/>
	</g>
	<path class="st5" d="M53.6,56.7L53.6,56.7L53.6,56.7z"/>
	<path class="st6" d="M81,0.6C78.4-0.6,75.4,0,73.5,2c-0.5,0.5-0.9,1.1-1.2,1.7l-21,44.4l-37.4,5.4l11.4,11.7l30.7-4.4l0.1,0
		c0.5-0.1,1.9-0.3,3.1-1.1c0,0,0.1,0,0.1-0.1c0.1-0.1,0.2-0.1,0.2-0.2c0.1-0.1,0.1-0.1,0.2-0.2c0,0,0,0,0.1-0.1
		c1-0.9,1.8-2.3,1.9-2.7l0.1-0.1L84,9.4C85.6,6.2,84.2,2.2,81,0.6z"/>
</g>
</svg>
