<?xml version="1.0" encoding="utf-8"?>
<!-- Generator: Adobe Illustrator 16.0.0, SVG Export Plug-In . SVG Version: 6.00 Build 0)  -->
<!DOCTYPE svg PUBLIC "-//W3C//DTD SVG 1.1//EN" "http://www.w3.org/Graphics/SVG/1.1/DTD/svg11.dtd">
<svg version="1.1" id="Layer_1" xmlns="http://www.w3.org/2000/svg" xmlns:xlink="http://www.w3.org/1999/xlink" x="0px" y="0px"
	 width="280px" height="400px" viewBox="257 78.25 280 400" enable-background="new 257 78.25 280 400" xml:space="preserve">
<rect x="257" y="78.25" fill="#606060" width="280" height="400"/>
<g transform="matrix(16.350364685058594 0 0 16.84782600402832 0 0)">
	<path fill="#929292" d="M30.927,14.116c0,1.2-1,2.2-2.2,2.2c-1.2,0-2.1-1.1-2.1-2.2c0-1.2,0.9-2.2,2.1-2.2
		C29.927,11.915,30.927,12.915,30.927,14.116z M25.927,16.515c-0.5-0.8-1.3-0.8-1.8,0l-0.1,0.1c-0.4-0.6-0.8-1.3-1.1-1.9
		c-0.7-1.2-1.8-1.2-2.5,0c-0.7,1.2-1.8,3.1-2.5,4.3c-0.7,1.2-0.1,2.1,1.3,2.1h7.7c1,0,1.4-0.6,0.9-1.5
		C27.327,18.716,26.527,17.416,25.927,16.515z"/>
</g>
<rect x="310.1" y="130.1" fill="none" width="280" height="400"/>
</svg>
