<?xml version="1.0" encoding="utf-8"?>
<!-- Generator: Adobe Illustrator 16.0.0, SVG Export Plug-In . SVG Version: 6.00 Build 0)  -->
<!DOCTYPE svg PUBLIC "-//W3C//DTD SVG 1.1//EN" "http://www.w3.org/Graphics/SVG/1.1/DTD/svg11.dtd">
<svg version="1.1" id="Layer_1" xmlns="http://www.w3.org/2000/svg" xmlns:xlink="http://www.w3.org/1999/xlink" x="0px" y="0px"
	 width="428.705px" height="157.619px" viewBox="0 0 428.705 157.619" enable-background="new 0 0 428.705 157.619"
	 xml:space="preserve">
<g>
	<g>
		<g>
			<path fill="#FFFFFF" d="M198.935,39.375h4.714c0.601,0,0.974,0.38,0.974,0.989V91.45c0,0.683-0.373,1.063-0.974,1.063h-4.714
				c-0.673,0-1.048-0.381-1.048-1.063V68.753H186.36V91.45c0,0.683-0.375,1.063-0.973,1.063h-4.716
				c-0.673,0-1.047-0.381-1.047-1.063V40.364c0-0.609,0.374-0.989,1.047-0.989h4.716c0.599,0,0.973,0.38,0.973,0.989v22.088h11.526
				V40.364C197.886,39.755,198.261,39.375,198.935,39.375z"/>
			<path fill="#FFFFFF" d="M210.759,81.051c0-6.303,4.791-11.159,11.825-11.159h5.614v-4.175c0-3.417-2.021-5.771-5.389-5.771
				c-3.144,0-4.865,2.125-5.091,5.238c-0.075,0.685-0.374,0.91-1.048,0.91h-4.341c-0.599,0-0.972-0.454-0.972-1.062
				c0.448-6.604,4.864-11.31,11.526-11.31c7.111,0,11.676,5.161,11.676,12.297v15.257c0,6.983-4.49,11.994-11.676,11.994
				C215.625,93.272,210.759,88.185,210.759,81.051z M228.199,81.278v-5.542h-5.389c-3.519,0-5.615,2.353-5.615,5.315
				c0,3.643,2.097,5.996,5.615,5.996C226.253,87.047,228.199,84.77,228.199,81.278z"/>
			<path fill="#FFFFFF" d="M240.996,91.45V66.095c0-7.21,4.716-12.372,11.676-12.372c6.961,0,11.678,5.161,11.678,12.372V91.45
				c0,0.683-0.374,1.063-1.049,1.063h-4.341c-0.673,0-1.047-0.381-1.047-1.063V65.87c0-3.569-1.947-5.997-5.241-5.997
				c-3.293,0-5.238,2.428-5.238,5.997v25.58c0,0.683-0.375,1.063-1.049,1.063h-4.34C241.371,92.513,240.996,92.132,240.996,91.45z"
				/>
			<path fill="#FFFFFF" d="M270.785,80.975v-14.88c0-7.21,4.79-12.372,11.975-12.372c7.261,0,11.977,5.161,11.977,12.372v14.88
				c0,7.21-4.716,12.373-11.977,12.373C275.575,93.348,270.785,88.185,270.785,80.975z M288.298,81.202V65.87
				c0-3.569-2.097-5.997-5.539-5.997c-3.443,0-5.465,2.428-5.465,5.997v15.332c0,3.568,2.021,5.996,5.465,5.996
				C286.202,87.198,288.298,84.77,288.298,81.202z"/>
			<path fill="#FFFFFF" d="M301.245,45.906c0-2.278,1.572-3.949,3.817-3.949c2.17,0,3.893,1.671,3.893,3.949
				c0,2.049-1.723,3.87-3.893,3.87C302.817,49.775,301.245,48.107,301.245,45.906z M301.843,91.45V55.545
				c0-0.608,0.375-0.986,1.049-0.986h4.34c0.676,0,1.049,0.378,1.049,0.986V91.45c0,0.683-0.373,1.063-1.049,1.063h-4.34
				C302.218,92.513,301.843,92.132,301.843,91.45z"/>
			<path fill="#FFFFFF" d="M332.753,91.45V52.964c0-7.818,5.164-13.589,12.725-13.589h6.586c0.674,0,1.049,0.38,1.049,0.989v4.325
				c0,0.685-0.375,1.064-1.049,1.064h-6.062c-3.893,0-6.512,3.037-6.512,7.364v9.867h11.151c0.599,0,0.974,0.379,0.974,0.986v4.327
				c0,0.606-0.375,0.986-0.974,0.986h-11.151V91.45c0,0.683-0.375,1.063-0.974,1.063h-4.791
				C333.128,92.513,332.753,92.132,332.753,91.45z"/>
			<path fill="#FFFFFF" d="M356.628,91.45V67.69c0-8.199,5.24-13.284,12.799-13.284h2.77c0.599,0,0.973,0.379,0.973,1.062v4.101
				c0,0.607-0.374,0.988-0.973,0.988h-2.695c-3.892,0-6.436,2.503-6.436,6.602V91.45c0,0.683-0.375,1.063-1.049,1.063h-4.34
				C357.003,92.513,356.628,92.132,356.628,91.45z"/>
			<path fill="#FFFFFF" d="M375.638,80.899V66.021c0.075-7.212,4.716-12.221,11.901-12.221c7.036-0.076,11.976,5.009,11.976,11.992
				c0,6.68-4.79,11.462-11.9,11.462h-5.539v3.947c0,3.492,2.021,5.921,5.464,5.921c3.069,0,5.089-2.275,5.314-5.616
				c0.075-0.683,0.45-0.987,1.047-0.987h4.417c0.599,0,0.974,0.38,0.974,0.987c-0.375,7.059-5.091,11.766-11.827,11.766
				C380.429,93.272,375.638,88.338,375.638,80.899z M387.615,71.334c3.443,0,5.463-2.202,5.463-5.39
				c0-3.644-2.095-5.998-5.538-5.998c-3.519,0-5.464,2.354-5.464,5.998v5.39H387.615z"/>
			<path fill="#FFFFFF" d="M404.828,80.899V66.021c0.075-7.212,4.717-12.221,11.902-12.221c7.035-0.076,11.975,5.009,11.975,11.992
				c0,6.68-4.79,11.462-11.9,11.462h-5.539v3.947c0,3.492,2.021,5.921,5.465,5.921c3.068,0,5.088-2.275,5.313-5.616
				c0.075-0.683,0.45-0.987,1.047-0.987h4.417c0.599,0,0.973,0.38,0.973,0.987c-0.374,7.059-5.09,11.766-11.825,11.766
				C409.619,93.272,404.828,88.338,404.828,80.899z M416.804,71.334c3.443,0,5.463-2.202,5.463-5.39
				c0-3.644-2.094-5.998-5.537-5.998c-3.52,0-5.465,2.354-5.465,5.998v5.39H416.804z"/>
		</g>
		<g>
			<path fill="#FFFFFF" d="M179.624,134.504v-22.191c0-4.723,2.778-8.015,7.179-8.015c4.443,0,7.349,3.292,7.349,8.015v4.422
				c0,4.422-2.863,7.455-7.307,7.455h-3.375v10.314c0,0.391-0.213,0.607-0.555,0.607h-2.736
				C179.837,135.112,179.624,134.895,179.624,134.504z M186.718,120.547c2.221,0,3.546-1.386,3.546-3.726v-4.683
				c0-2.512-1.325-4.158-3.418-4.158c-2.093,0-3.375,1.646-3.375,4.158v8.408H186.718z"/>
			<path fill="#FFFFFF" d="M196.12,134.504v-13.566c0-4.68,2.991-7.583,7.307-7.583h1.582c0.341,0,0.555,0.216,0.555,0.605v2.34
				c0,0.347-0.214,0.563-0.555,0.563h-1.54c-2.223,0-3.675,1.432-3.675,3.771v13.87c0,0.391-0.213,0.607-0.597,0.607h-2.479
				C196.333,135.112,196.12,134.895,196.12,134.504z"/>
			<path fill="#FFFFFF" d="M207.999,108.5c0-1.301,0.896-2.254,2.179-2.254c1.24,0,2.221,0.953,2.221,2.254
				c0,1.169-0.981,2.209-2.221,2.209C208.895,110.709,207.999,109.758,207.999,108.5z M208.339,134.504v-20.5
				c0-0.346,0.215-0.563,0.599-0.563h2.479c0.384,0,0.597,0.218,0.597,0.563v20.5c0,0.391-0.213,0.607-0.597,0.607h-2.479
				C208.554,135.112,208.339,134.895,208.339,134.504z"/>
			<path fill="#FFFFFF" d="M226.928,113.441h2.606c0.428,0,0.6,0.26,0.514,0.649l-4.83,19.633c-0.213,1.04-0.896,1.561-1.922,1.561
				h-1.752c-1.069,0-1.71-0.521-1.923-1.561l-4.829-19.633c-0.086-0.39,0.086-0.649,0.47-0.649h2.649
				c0.343,0,0.598,0.173,0.642,0.52l3.847,17.813l3.888-17.813C226.33,113.614,226.585,113.441,226.928,113.441z"/>
			<path fill="#FFFFFF" d="M231.799,128.569c0-3.6,2.734-6.374,6.751-6.374h3.206v-2.384c0-1.949-1.154-3.293-3.078-3.293
				c-1.794,0-2.777,1.213-2.905,2.988c-0.042,0.393-0.213,0.521-0.599,0.521h-2.478c-0.342,0-0.557-0.26-0.557-0.605
				c0.258-3.771,2.779-6.459,6.582-6.459c4.059,0,6.666,2.948,6.666,7.021v8.712c0,3.987-2.563,6.847-6.666,6.847
				C234.578,135.543,231.799,132.642,231.799,128.569z M241.756,128.697v-3.165h-3.078c-2.008,0-3.204,1.345-3.204,3.037
				c0,2.079,1.196,3.422,3.204,3.422C240.644,131.991,241.756,130.69,241.756,128.697z"/>
			<path fill="#FFFFFF" d="M258.507,132.294v2.384c0,0.346-0.215,0.564-0.6,0.564h-0.641c-4.23,0-6.752-2.904-6.752-7.674v-10.747
				h-2.393c-0.341,0-0.556-0.219-0.556-0.563v-2.254c0-0.346,0.215-0.563,0.556-0.563h2.393v-5.591c0-0.391,0.214-0.607,0.6-0.607
				h2.479c0.341,0,0.555,0.217,0.555,0.607v5.591h3.291c0.342,0,0.555,0.218,0.555,0.563v2.254c0,0.345-0.213,0.563-0.555,0.563
				h-3.291v10.791c0,2.731,1.111,4.118,3.291,4.118h0.469C258.292,131.731,258.507,131.948,258.507,132.294z"/>
			<path fill="#FFFFFF" d="M260.771,128.479v-8.494c0.043-4.117,2.692-6.978,6.794-6.978c4.017-0.044,6.837,2.86,6.837,6.847
				c0,3.814-2.734,6.546-6.793,6.546h-3.162v2.255c0,1.993,1.154,3.379,3.118,3.379c1.753,0,2.907-1.299,3.034-3.206
				c0.043-0.391,0.257-0.564,0.599-0.564h2.521c0.342,0,0.556,0.216,0.556,0.564c-0.214,4.03-2.906,6.716-6.752,6.716
				C263.505,135.543,260.771,132.728,260.771,128.479z M267.609,123.02c1.965,0,3.119-1.258,3.119-3.08
				c0-2.078-1.197-3.422-3.163-3.422c-2.009,0-3.118,1.344-3.118,3.422v3.08H267.609z"/>
			<path fill="#FFFFFF" d="M299.914,105.336v2.47c0,0.391-0.215,0.607-0.6,0.607H294.7v26.091c0,0.391-0.213,0.607-0.599,0.607
				h-2.692c-0.341,0-0.556-0.217-0.556-0.607v-26.091h-4.658c-0.342,0-0.555-0.217-0.555-0.607v-2.47
				c0-0.347,0.213-0.564,0.555-0.564h13.119C299.699,104.772,299.914,104.99,299.914,105.336z"/>
			<path fill="#FFFFFF" d="M299.314,128.524v-8.496c0-4.116,2.736-7.064,6.838-7.064c4.145,0,6.836,2.948,6.836,7.064v8.496
				c0,4.118-2.691,7.063-6.836,7.063C302.05,135.587,299.314,132.642,299.314,128.524z M309.314,128.655v-8.756
				c0-2.037-1.197-3.425-3.162-3.425s-3.119,1.388-3.119,3.425v8.756c0,2.035,1.154,3.422,3.119,3.422
				S309.314,130.69,309.314,128.655z"/>
			<path fill="#FFFFFF" d="M319.314,113.441c0.384,0,0.598,0.218,0.598,0.604v14.609c0,2.035,1.111,3.422,2.992,3.422
				c1.88,0,2.99-1.387,2.99-3.422v-14.609c0-0.387,0.213-0.604,0.6-0.604h2.477c0.385,0,0.6,0.218,0.6,0.604v14.479
				c0,4.118-2.693,7.063-6.666,7.063c-3.976,0-6.668-2.945-6.668-7.063v-14.479c0-0.387,0.215-0.604,0.599-0.604H319.314z"/>
			<path fill="#FFFFFF" d="M333.244,134.504v-13.566c0-4.68,2.992-7.583,7.308-7.583h1.58c0.343,0,0.558,0.216,0.558,0.605v2.34
				c0,0.347-0.215,0.563-0.558,0.563h-1.538c-2.223,0-3.676,1.432-3.676,3.771v13.87c0,0.391-0.213,0.607-0.598,0.607h-2.479
				C333.457,135.112,333.244,134.895,333.244,134.504z"/>
			<path fill="#FFFFFF" d="M354.395,127.569V112.27c0-4.723,2.948-7.972,7.392-7.972c4.274,0,7.222,3.249,7.352,7.886
				c0,0.389-0.214,0.607-0.557,0.607h-2.734c-0.342,0-0.557-0.219-0.598-0.607c-0.129-2.643-1.411-4.203-3.463-4.203
				c-2.178,0-3.504,1.602-3.504,4.158v15.605c0,2.556,1.496,4.159,3.676,4.159c2.137,0,3.631-1.604,3.631-3.856v-5.894h-2.947
				c-0.385,0-0.598-0.22-0.598-0.564v-2.298c0-0.391,0.213-0.607,0.598-0.607h5.043c1.11,0,1.751,0.65,1.751,1.777v7.369
				c0,4.464-3.076,7.757-7.521,7.757S354.395,132.294,354.395,127.569z"/>
			<path fill="#FFFFFF" d="M375.931,113.441c0.386,0,0.599,0.218,0.599,0.604v14.609c0,2.035,1.11,3.422,2.991,3.422
				c1.88,0,2.992-1.387,2.992-3.422v-14.609c0-0.387,0.213-0.604,0.598-0.604h2.479c0.385,0,0.598,0.218,0.598,0.604v14.479
				c0,4.118-2.691,7.063-6.666,7.063s-6.666-2.945-6.666-7.063v-14.479c0-0.387,0.213-0.604,0.599-0.604H375.931z"/>
			<path fill="#FFFFFF" d="M390.375,108.5c0-1.301,0.898-2.254,2.18-2.254c1.238,0,2.221,0.953,2.221,2.254
				c0,1.169-0.982,2.209-2.221,2.209C391.273,110.709,390.375,109.758,390.375,108.5z M390.715,134.504v-20.5
				c0-0.346,0.215-0.563,0.599-0.563h2.479c0.385,0,0.598,0.218,0.598,0.563v20.5c0,0.391-0.213,0.607-0.598,0.607h-2.479
				C390.93,135.112,390.715,134.895,390.715,134.504z"/>
			<path fill="#FFFFFF" d="M411.527,105.336v23.188c0,4.118-2.736,7.063-6.795,7.063c-4.102,0-6.793-2.945-6.793-7.063v-8.496
				c0-4.116,2.521-7.064,6.367-7.064c1.494,0,2.691,0.607,3.545,1.604v-9.23c0-0.347,0.214-0.564,0.6-0.564h2.478
				C411.312,104.772,411.527,104.99,411.527,105.336z M407.851,119.899c0-2.037-1.153-3.381-3.119-3.381
				c-1.965,0-3.162,1.344-3.162,3.381v8.756c0,2.035,1.197,3.379,3.162,3.379c1.966,0,3.119-1.344,3.119-3.379V119.899z"/>
			<path fill="#FFFFFF" d="M415.073,128.479v-8.494c0.044-4.117,2.692-6.978,6.796-6.978c4.017-0.044,6.836,2.86,6.836,6.847
				c0,3.814-2.734,6.546-6.793,6.546h-3.162v2.255c0,1.993,1.152,3.379,3.119,3.379c1.752,0,2.906-1.299,3.033-3.206
				c0.043-0.391,0.257-0.564,0.6-0.564h2.521c0.343,0,0.556,0.216,0.556,0.564c-0.213,4.03-2.905,6.716-6.752,6.716
				C417.808,135.543,415.073,132.728,415.073,128.479z M421.912,123.02c1.965,0,3.119-1.258,3.119-3.08
				c0-2.078-1.197-3.422-3.162-3.422c-2.009,0-3.119,1.344-3.119,3.422v3.08H421.912z"/>
		</g>
	</g>
	<g>
		<path fill="#2AA9E0" d="M74.49,120.731l0.109-0.059C74.533,120.707,74.494,120.727,74.49,120.731z"/>
		<path fill="#2AA9E0" d="M81.748,120.732c0,0-0.046-0.025-0.123-0.066L81.748,120.732L81.748,120.732z"/>
		<path fill="#2AA9E0" d="M121.714,101.401l28.671-28.245l-16.133-2.505l-23.66,23.307l-0.101,0.098
			c-0.321,0.324-1.366,1.438-1.886,2.715c-0.011,0.031-0.023,0.061-0.035,0.092c-0.033,0.09-0.068,0.179-0.097,0.27
			c-0.029,0.093-0.051,0.185-0.075,0.277c-0.008,0.032-0.015,0.063-0.023,0.096c-0.309,1.357-0.085,2.895-0.009,3.335l0.022,0.121
			l9.336,51.257c0.652,3.582,4.048,5.951,7.586,5.291c2.82-0.527,4.871-2.822,5.261-5.547c0.099-0.691,0.095-1.41-0.038-2.137
			L121.714,101.401z"/>
		<path fill="#39B54A" d="M154.7,56.515c-0.612-0.322-1.284-0.553-2.005-0.665l-48.059-7.459L87.576,11.459l-7.297,15.333
			l13.765,29.795l0.059,0.128c0.196,0.414,0.892,1.78,1.912,2.696c0.025,0.021,0.05,0.043,0.075,0.063
			c0.072,0.061,0.144,0.124,0.219,0.182c0.076,0.057,0.157,0.108,0.235,0.162c0.026,0.019,0.054,0.035,0.08,0.054
			c1.166,0.74,2.673,1.031,3.106,1.102l0.122,0.02l50.869,7.894c3.557,0.551,6.88-1.918,7.425-5.52
			C158.58,60.497,157.113,57.78,154.7,56.515z"/>
		<path fill="#ED1164" d="M36.119,100.741l-7.962,39.698l14.719-7.144l6.573-32.758l0.027-0.137
			c0.086-0.452,0.329-1.967,0.048-3.318c-0.008-0.033-0.015-0.064-0.022-0.098c-0.022-0.092-0.043-0.186-0.07-0.277
			c-0.026-0.094-0.062-0.183-0.093-0.273c-0.011-0.029-0.022-0.061-0.032-0.09c-0.502-1.299-1.542-2.44-1.849-2.76l-0.087-0.09
			L11.132,56.488c-2.532-2.587-6.655-2.604-9.209-0.04c-2.037,2.046-2.454,5.113-1.259,7.584c0.304,0.628,0.707,1.22,1.22,1.744
			L36.119,100.741z"/>
		<path fill="#1C75BC" d="M33.553,157.524c0.681-0.119,1.354-0.346,1.995-0.697l42.755-23.445l35.618,19.005l-3.325-16.685
			L81.858,120.37l-0.122-0.066c-0.404-0.21-1.772-0.873-3.132-0.979c-0.032-0.001-0.064-0.003-0.097-0.005
			c-0.096-0.004-0.189-0.01-0.283-0.01c-0.096,0.001-0.19,0.007-0.284,0.014c-0.033,0.001-0.064,0.004-0.098,0.006
			c-1.369,0.123-2.744,0.813-3.132,1.021l-0.108,0.059l-45.256,24.818c-3.163,1.734-4.339,5.736-2.627,8.939
			C28.086,156.722,30.875,157.991,33.553,157.524z"/>
		<g>
			<path fill="#1C75BC" d="M74.503,115.131l0.11-0.061c0.399-0.211,1.81-0.91,3.217-1.035c0.033-0.002,0.065-0.004,0.1-0.006
				c0.096-0.005,0.193-0.014,0.291-0.015c0.098,0,0.193,0.008,0.291,0.012c0.033,0.001,0.067,0.003,0.1,0.005
				c1.396,0.107,2.799,0.779,3.214,0.992l0.125,0.066l19.924,10.497v-21.028h-4.237V90.958v-2.576v-1.416h-2.08v1.416h-5.27v-8.141
				h0.971l-3.05-2.218v-4.022c0.104,0,0.199,0,0.276,0c1.664,0,1.803-2.357,1.803-2.357c-5.546,1.941-11.926-3.882-11.926-3.882
				s-6.378,5.824-11.926,3.882c0,0,0.14,2.357,1.804,2.357c0.077,0,0.173,0,0.276,0v4.022l-3.051,2.218h0.971v8.141h-5.269v-1.416
				h-2.081v1.416v2.576v13.602h-4.237v21.214L74.503,115.131z M81.648,104.233c0,0.215-0.03,0.421-0.078,0.621h-6.157
				c-0.044-0.2-0.076-0.406-0.076-0.621v-6.654c0-1.742,1.412-3.156,3.157-3.156c1.746,0,3.154,1.414,3.154,3.156V104.233z
				 M75.693,84.123c0-1.476,1.194-2.671,2.669-2.671s2.67,1.195,2.67,2.671c0,1.474-1.195,2.67-2.67,2.67
				S75.693,85.596,75.693,84.123z M90.476,97.579v6.654c0,0.215-0.029,0.421-0.075,0.621h-6.157c-0.049-0.2-0.076-0.406-0.076-0.621
				v-6.654c0-1.742,1.407-3.156,3.155-3.156C89.066,94.422,90.476,95.836,90.476,97.579z M71.567,74.443h6.795h6.796v2.439h-6.796
				h-6.795V74.443z M65.739,97.579c0-1.742,1.414-3.156,3.157-3.156c1.744,0,3.158,1.414,3.158,3.156v6.654
				c0,0.215-0.035,0.421-0.08,0.621h-6.155c-0.045-0.2-0.08-0.406-0.08-0.621V97.579z"/>
		</g>
		<polygon fill="#FCEE21" points="53.583,56.738 53.583,56.738 53.583,56.738 		"/>
		<path fill="#F7941E" d="M80.963,0.649c-2.586-1.257-5.579-0.626-7.477,1.344c-0.482,0.501-0.897,1.084-1.213,1.749L51.241,48.14
			l-37.42,5.428L25.25,65.236l30.652-4.448l0.137-0.019c0.45-0.069,1.941-0.347,3.104-1.069c0.026-0.018,0.054-0.036,0.081-0.055
			c0.078-0.051,0.159-0.104,0.235-0.159c0.076-0.056,0.148-0.119,0.222-0.18c0.026-0.021,0.05-0.042,0.074-0.063
			c1.039-0.914,1.752-2.29,1.946-2.689l0.053-0.112L84.016,9.449C85.572,6.165,84.206,2.226,80.963,0.649z"/>
	</g>
</g>
</svg>
